<?xml version="1.0" encoding="UTF-8" standalone="no"?><!-- Generator: Gravit.io --><svg xmlns="http://www.w3.org/2000/svg" xmlns:xlink="http://www.w3.org/1999/xlink" style="isolation:isolate" viewBox="0 0 154 189.5" width="154pt" height="189.5pt"><defs><clipPath id="_clipPath_kklHhkAsRJ5D2E3bKVxuW4VVKxbw3RcS"><rect width="154" height="189.5"/></clipPath></defs><g clip-path="url(#_clipPath_kklHhkAsRJ5D2E3bKVxuW4VVKxbw3RcS)"><path d=" M 124 83.5 L 124 71.5 L 142 71.5 L 142 64.5 L 76 3.5 L 42.5 34 L 9 64.5 L 9 71.5 L 28 71.5 Q 28 98.786 28 116.25 Q 28.906 123.75 38 125.5 L 92 125.5" fill="none" vector-effect="non-scaling-stroke" stroke-width="7" stroke="rgb(234,29,34)" stroke-linejoin="round" stroke-linecap="square" stroke-miterlimit="3"/><path d=" M 108 93.5 L 108 54.5 L 76 25.5 L 44 54.5 L 44 109.5 L 76 109.5" fill="none" vector-effect="non-scaling-stroke" stroke-width="7" stroke="rgb(214,215,217)" stroke-linejoin="round" stroke-linecap="square" stroke-miterlimit="3"/><path d=" M 42.5 21.5 L 26 21.5 L 26 48.5 L 42.5 34 L 42.5 21.5 Z " fill="rgb(234,29,34)"/><g clip-path="url(#_clipPath_uxqiM5yFQ4H0oBvlxHEirBUkCZ6JwEVS)"><text transform="matrix(1,0,0,1,0,167.563)" style="font-family:'Berlin Sans FB';font-weight:400;font-size:31px;font-style:normal;fill:#bd2611;stroke:none;">Neat Home</text><text transform="matrix(1,0,0,1,55.383,186.533)" style="font-family:'Arial';font-weight:400;font-size:14px;font-style:normal;fill:#bd2611;stroke:none;">Basics</text></g><defs><clipPath id="_clipPath_uxqiM5yFQ4H0oBvlxHEirBUkCZ6JwEVS"><rect x="0" y="0" width="154" height="52.438" transform="matrix(1,0,0,1,0,137.062)"/></clipPath></defs><g clip-path="url(#_clipPath_pcgTTKWt2LXxIP6sbD7b3gXOIntVpvm9)"><text transform="matrix(1,0,0,1,60.315,88.406)" style="font-family:'Open Sans';font-weight:700;font-size:41px;font-style:normal;fill:#bd2611;stroke:none;">H</text></g><defs><clipPath id="_clipPath_pcgTTKWt2LXxIP6sbD7b3gXOIntVpvm9"><rect x="0" y="0" width="40" height="40" transform="matrix(1,0,0,1,57,52.5)"/></clipPath></defs><path d=" M 95 128.5 L 106 128.5 L 101 122.5 L 95 122.5 L 95 128.5 Z " fill="rgb(234,29,34)" vector-effect="non-scaling-stroke" stroke-width="1" stroke="rgb(234,29,34)" stroke-linejoin="miter" stroke-linecap="square" stroke-miterlimit="3"/><path d=" M 79 112.5 L 90 112.5 L 85 106.5 L 79 106.5 L 79 112.5 Z " fill="rgb(214,215,217)" vector-effect="non-scaling-stroke" stroke-width="1" stroke="rgb(214,215,217)" stroke-linejoin="miter" stroke-linecap="square" stroke-miterlimit="3"/><path d=" M 94 112.5 L 105 112.5 L 100 106.5 L 89 106.5 L 94 112.5 Z " fill="rgb(214,215,217)" vector-effect="non-scaling-stroke" stroke-width="1" stroke="rgb(214,215,217)" stroke-linejoin="miter" stroke-linecap="square" stroke-miterlimit="3"/><path d=" M 110 128 L 121 128 L 116 122 L 105 122 L 110 128 Z " fill="rgb(214,215,217)" vector-effect="non-scaling-stroke" stroke-width="1" stroke="rgb(214,215,217)" stroke-linejoin="miter" stroke-linecap="square" stroke-miterlimit="3"/><path d=" M 119 86.5 L 119 66.5 L 137 66.5 L 76 9.5 L 15 66.5 L 33 66.5 Q 33 94.548 33 112.5 Q 33.344 118.906 40 120.5 L 112 120.5 L 108 114.5 L 42.5 114.5 Q 39.063 114.5 39 111.5 Q 39 88.474 39 52.5 L 76 19.5 L 114 53.5 L 114 86.5 L 119 86.5 Z " fill="rgb(239,239,237)" vector-effect="non-scaling-stroke" stroke-width="1" stroke="rgb(239,239,237)" stroke-linejoin="miter" stroke-linecap="square" stroke-miterlimit="3"/></g></svg>